<svg width="72" height="73" viewBox="0 0 72 73" fill="none" xmlns="http://www.w3.org/2000/svg">
<g clip-path="url(#clip0_1_71)">
<path d="M15.6615 29.7019C17.053 25.3962 19.7385 21.65 23.3349 18.9976C26.9313 16.3453 31.2549 14.9222 35.6889 14.9315C40.7151 14.9315 45.2594 16.7565 48.8283 19.7435L59.2138 9.125C52.885 3.48271 44.7747 0 35.6889 0C21.6215 0 9.51108 8.20642 3.68784 20.2271L15.6615 29.7019Z" fill="#EA4335"/>
<path d="M47.7042 54.7895C44.4624 56.9278 40.3463 58.0685 35.6889 58.0685C31.2726 58.0777 26.9653 56.666 23.3769 54.0333C19.7885 51.4005 17.1008 47.68 15.6942 43.3985L3.67893 52.7273C6.62697 58.8298 11.1893 63.9644 16.8476 67.548C22.5059 71.1315 29.0335 73.0204 35.6889 73C44.4118 73 52.7452 69.8275 58.9878 63.875L47.7071 54.7895H47.7042Z" fill="#34A853"/>
<path d="M58.9878 63.875C65.5159 57.6457 69.7539 48.3747 69.7539 36.5C69.7539 34.3404 69.4298 32.0196 68.945 29.8631H35.6889V43.9673H54.83C53.8872 48.7092 51.3504 52.3805 47.7071 54.7895L58.9878 63.875Z" fill="#4A90E2"/>
<path d="M15.6943 43.3985C14.9668 41.1748 14.5971 38.8449 14.5999 36.5C14.5999 34.1214 14.9716 31.8371 15.6616 29.7019L3.68801 20.2271C1.23849 25.2844 -0.0242211 30.8562 0.00015561 36.5C0.00015561 42.34 1.32362 47.8454 3.67909 52.7273L15.6943 43.3985Z" fill="#FBBC05"/>
</g>
<defs>
<clipPath id="clip0_1_71">
<rect width="71.3778" height="73" fill="white"/>
</clipPath>
</defs>
</svg>
